<!-- youtube SVG icon code -->
<svg width="91" height="64" data-name="youtube" xmlns="http://www.w3.org/2000/svg" viewBox="0 0 90.98 64">
    <title>youtube icon</title>
    <g data-name="icon">
        <path d="M90.07,13.81s-.89-6.27-3.61-9C83,1.15,79.12,1.13,77.34.92,64.61,0,45.51,0,45.51,0h0S26.37,0,13.64.92c-1.78.21-5.66.23-9.12,3.85-2.72,2.77-3.61,9-3.61,9A137.24,137.24,0,0,0,0,28.53v6.9A137.54,137.54,0,0,0,.91,50.16s.89,6.27,3.61,9c3.47,3.63,8,3.51,10,3.89,7.28.7,30.94.92,30.94.92s19.12,0,31.85-1c1.78-.22,5.66-.23,9.12-3.86,2.72-2.76,3.61-9,3.61-9A137.79,137.79,0,0,0,91,35.43v-6.9A137.24,137.24,0,0,0,90.07,13.81Zm-54,30V18.23L60.68,31.06Z" style="fill:#000000"></path>
    </g>
</svg>